<svg width="554" height="598" viewBox="0 0 554 598" fill="none" xmlns="http://www.w3.org/2000/svg">
<path d="M272.535 0.819309C213.468 6.01931 159.735 26.686 112.935 62.286C104.535 68.5526 101.201 72.0193 101.201 74.0193C101.201 77.486 178.535 154.953 182.668 155.619C184.268 155.886 188.268 153.886 192.268 150.819C239.068 115.353 306.001 107.353 363.468 130.553C396.001 143.619 427.601 170.019 447.468 200.819C453.201 209.753 455.201 211.886 457.868 211.886C461.468 211.886 550.935 153.353 553.068 149.486C554.668 146.686 552.668 142.686 542.135 127.886C499.601 67.7526 433.468 23.2193 362.935 7.21931C335.868 1.08598 298.935 -1.44736 272.535 0.819309Z" fill="#C2DD6E"/>
<path d="M61.8677 114.153C44.1343 136.419 23.601 173.219 14.5343 199.219C6.26767 222.819 -0.798995 257.886 0.134339 271.219L0.534339 277.886L57.3343 278.286C103.868 278.553 114.401 278.286 115.734 276.819C116.534 275.753 118.134 269.886 119.201 263.753C123.468 241.086 133.734 216.153 146.534 197.219C149.468 192.819 151.868 188.153 151.868 186.686C151.868 183.486 74.5343 107.486 70.6677 106.819C68.801 106.553 66.1343 108.686 61.8677 114.153Z" fill="#162210"/>
<path d="M319.201 218.686C316.401 222.953 268.001 372.953 268.668 374.953C269.335 376.953 270.668 377.219 278.801 376.953L288.135 376.553L313.468 301.886C327.335 260.819 339.068 225.753 339.468 224.019C340.001 221.753 339.468 220.286 337.868 218.953C334.935 216.819 320.401 216.553 319.201 218.686Z" fill="#D8C6F6"/>
<path d="M211.468 267.353C185.734 282.686 174.001 290.553 173.201 292.686C171.601 296.686 173.068 304.686 175.734 306.953C177.868 308.953 232.401 341.753 244.801 348.553C251.601 352.419 251.734 352.419 254.401 350.019C256.668 348.019 257.201 345.886 257.201 339.753V331.886L229.868 315.753C214.801 306.819 202.534 298.819 202.534 298.019C202.534 297.219 214.801 289.353 229.601 280.553L256.534 264.553L256.934 256.553C257.334 248.286 255.601 245.219 250.668 245.219C249.468 245.219 231.868 255.219 211.468 267.353Z" fill="#D8C6F6"/>
<path d="M352.401 246.819C347.735 248.953 346.135 262.153 350.001 265.353C351.201 266.419 363.468 273.753 377.068 281.886C391.068 290.286 401.868 297.486 401.868 298.553C401.868 299.619 391.068 306.819 377.068 315.219C363.468 323.219 351.201 330.686 350.001 331.753C347.868 333.619 347.201 340.553 348.668 346.286C349.868 350.819 355.068 351.486 361.601 347.886C369.468 343.619 426.668 309.353 429.601 307.219C432.535 305.086 434.001 296.019 432.135 292.286C430.935 290.153 357.201 244.953 355.601 245.353C355.335 245.353 353.868 246.019 352.401 246.819Z" fill="#D8C6F6"/>
<path d="M2.26771 320.019C-0.798958 321.753 -0.798958 327.086 2.53438 347.219C8.80104 386.019 21.7344 420.953 42.001 454.553C52.801 472.553 67.4677 491.886 70.1344 491.886C72.5344 491.886 153.201 412.286 153.201 410.019C153.201 409.353 150.268 404.553 146.668 399.353C133.601 380.286 122.668 353.886 118.534 331.486C117.334 325.086 116.134 321.886 114.134 320.553C111.734 318.819 102.801 318.553 57.8677 318.553C24.1344 318.553 3.73438 319.086 2.26771 320.019Z" fill="#162210"/>
<path d="M453.068 387.486C452.001 388.819 448.135 394.419 444.535 399.886C440.935 405.353 431.068 416.819 422.535 425.219C396.535 451.219 370.535 465.886 335.201 474.686C318.135 478.953 285.068 479.619 264.135 476.019C238.268 471.619 213.735 461.353 194.801 447.219C190.401 443.886 185.468 441.219 183.735 441.219C179.201 441.219 99.3345 521.086 100.668 524.286C101.735 527.353 130.268 548.819 143.468 556.553C205.735 593.353 282.535 605.886 355.868 591.086C431.601 576.019 502.535 528.286 546.535 463.353C550.135 457.886 553.201 451.886 553.201 450.153C553.201 447.486 548.535 443.886 524.935 428.286C509.335 417.886 488.535 404.019 478.668 397.353C468.801 390.686 459.468 385.219 457.868 385.219C456.268 385.219 454.135 386.286 453.068 387.486Z" fill="#C2DD6E"/>
</svg>
